<mxfile host="app.diagrams.net" agent="Mozilla/5.0 (Windows NT 10.0; Win64; x64) AppleWebKit/537.36 (KHTML, like Gecko) Chrome/129.0.0.0 Safari/537.36" version="24.7.17">
  <diagram name="Page-1" id="zdLS6XzUSG3x8lp1yBCd">
    <mxGraphModel dx="1434" dy="841" grid="1" gridSize="10" guides="1" tooltips="1" connect="1" arrows="1" fold="1" page="1" pageScale="1" pageWidth="827" pageHeight="1169" background="none" math="0" shadow="0">
      <root>
        <mxCell id="0" />
        <mxCell id="1" parent="0" />
        <mxCell id="VpHzmzro31c7H7pZUwm9-26" value="" style="ellipse;whiteSpace=wrap;html=1;fillColor=none;dashed=1;rotation=70;" parent="1" vertex="1">
          <mxGeometry x="464.09000000000003" y="29.61" width="148.84" height="300.52" as="geometry" />
        </mxCell>
        <mxCell id="VpHzmzro31c7H7pZUwm9-11" value="" style="ellipse;whiteSpace=wrap;html=1;fillColor=none;dashed=1;rotation=0;" parent="1" vertex="1">
          <mxGeometry x="134.66" y="255.67" width="148.34" height="248.66" as="geometry" />
        </mxCell>
        <mxCell id="_PjYLiZ7u1xAUvMMXe8_-25" value="" style="ellipse;whiteSpace=wrap;html=1;fillColor=none;dashed=1;rotation=0;" parent="1" vertex="1">
          <mxGeometry x="220" y="118.33" width="240" height="349.67" as="geometry" />
        </mxCell>
        <mxCell id="_PjYLiZ7u1xAUvMMXe8_-1" value="&lt;font face=&quot;Helvetica&quot; style=&quot;font-size: 24px;&quot;&gt;1&lt;/font&gt;" style="ellipse;whiteSpace=wrap;html=1;aspect=fixed;strokeWidth=2;" parent="1" vertex="1">
          <mxGeometry x="240" y="360" width="40" height="40" as="geometry" />
        </mxCell>
        <mxCell id="_PjYLiZ7u1xAUvMMXe8_-2" value="&lt;font face=&quot;Helvetica&quot; style=&quot;font-size: 24px;&quot;&gt;9&lt;/font&gt;" style="ellipse;whiteSpace=wrap;html=1;aspect=fixed;strokeWidth=2;" parent="1" vertex="1">
          <mxGeometry x="160" y="440" width="40" height="40" as="geometry" />
        </mxCell>
        <mxCell id="_PjYLiZ7u1xAUvMMXe8_-3" value="&lt;font face=&quot;Helvetica&quot; style=&quot;font-size: 24px;&quot;&gt;2&lt;/font&gt;" style="ellipse;whiteSpace=wrap;html=1;aspect=fixed;strokeWidth=2;" parent="1" vertex="1">
          <mxGeometry x="160" y="280" width="40" height="40" as="geometry" />
        </mxCell>
        <mxCell id="_PjYLiZ7u1xAUvMMXe8_-12" value="" style="endArrow=classic;html=1;rounded=0;exitX=1;exitY=0;exitDx=0;exitDy=0;entryX=0;entryY=1;entryDx=0;entryDy=0;strokeWidth=2;" parent="1" source="_PjYLiZ7u1xAUvMMXe8_-2" target="_PjYLiZ7u1xAUvMMXe8_-1" edge="1">
          <mxGeometry width="50" height="50" relative="1" as="geometry">
            <mxPoint x="520" y="580" as="sourcePoint" />
            <mxPoint x="570" y="530" as="targetPoint" />
          </mxGeometry>
        </mxCell>
        <mxCell id="_PjYLiZ7u1xAUvMMXe8_-14" value="" style="endArrow=classic;html=1;rounded=0;entryX=0.5;entryY=1;entryDx=0;entryDy=0;strokeWidth=2;" parent="1" source="_PjYLiZ7u1xAUvMMXe8_-2" target="_PjYLiZ7u1xAUvMMXe8_-3" edge="1">
          <mxGeometry width="50" height="50" relative="1" as="geometry">
            <mxPoint x="520" y="580" as="sourcePoint" />
            <mxPoint x="570" y="530" as="targetPoint" />
          </mxGeometry>
        </mxCell>
        <mxCell id="_PjYLiZ7u1xAUvMMXe8_-15" value="" style="endArrow=classic;html=1;rounded=0;exitX=0;exitY=0;exitDx=0;exitDy=0;entryX=1;entryY=1;entryDx=0;entryDy=0;strokeWidth=2;" parent="1" source="_PjYLiZ7u1xAUvMMXe8_-1" target="_PjYLiZ7u1xAUvMMXe8_-3" edge="1">
          <mxGeometry width="50" height="50" relative="1" as="geometry">
            <mxPoint x="336" y="456" as="sourcePoint" />
            <mxPoint x="284" y="404" as="targetPoint" />
          </mxGeometry>
        </mxCell>
        <mxCell id="VpHzmzro31c7H7pZUwm9-1" value="&lt;font face=&quot;Helvetica&quot; style=&quot;font-size: 24px;&quot;&gt;4&lt;/font&gt;" style="ellipse;whiteSpace=wrap;html=1;aspect=fixed;strokeWidth=2;" parent="1" vertex="1">
          <mxGeometry x="240" y="200" width="40" height="40" as="geometry" />
        </mxCell>
        <mxCell id="VpHzmzro31c7H7pZUwm9-2" value="&lt;font face=&quot;Helvetica&quot; style=&quot;font-size: 24px;&quot;&gt;5&lt;/font&gt;" style="ellipse;whiteSpace=wrap;html=1;aspect=fixed;strokeWidth=2;" parent="1" vertex="1">
          <mxGeometry x="400" y="200" width="40" height="40" as="geometry" />
        </mxCell>
        <mxCell id="VpHzmzro31c7H7pZUwm9-3" value="&lt;font face=&quot;Helvetica&quot; style=&quot;font-size: 24px;&quot;&gt;3&lt;/font&gt;" style="ellipse;whiteSpace=wrap;html=1;aspect=fixed;strokeWidth=2;" parent="1" vertex="1">
          <mxGeometry x="320" y="121" width="40" height="40" as="geometry" />
        </mxCell>
        <mxCell id="VpHzmzro31c7H7pZUwm9-4" value="&lt;font face=&quot;Helvetica&quot; style=&quot;font-size: 24px;&quot;&gt;0&lt;/font&gt;" style="ellipse;whiteSpace=wrap;html=1;aspect=fixed;strokeWidth=2;" parent="1" vertex="1">
          <mxGeometry x="400" y="360" width="40" height="40" as="geometry" />
        </mxCell>
        <mxCell id="VpHzmzro31c7H7pZUwm9-5" value="" style="endArrow=classic;html=1;rounded=0;exitX=0;exitY=0.5;exitDx=0;exitDy=0;strokeWidth=2;entryX=1;entryY=0.5;entryDx=0;entryDy=0;" parent="1" source="VpHzmzro31c7H7pZUwm9-4" target="_PjYLiZ7u1xAUvMMXe8_-1" edge="1">
          <mxGeometry width="50" height="50" relative="1" as="geometry">
            <mxPoint x="336" y="456" as="sourcePoint" />
            <mxPoint x="510" y="340" as="targetPoint" />
          </mxGeometry>
        </mxCell>
        <mxCell id="VpHzmzro31c7H7pZUwm9-6" value="" style="endArrow=classic;html=1;rounded=0;strokeWidth=2;entryX=0.5;entryY=1;entryDx=0;entryDy=0;exitX=0.5;exitY=0;exitDx=0;exitDy=0;" parent="1" source="VpHzmzro31c7H7pZUwm9-4" target="VpHzmzro31c7H7pZUwm9-2" edge="1">
          <mxGeometry width="50" height="50" relative="1" as="geometry">
            <mxPoint x="390" y="300" as="sourcePoint" />
            <mxPoint x="284" y="376" as="targetPoint" />
          </mxGeometry>
        </mxCell>
        <mxCell id="VpHzmzro31c7H7pZUwm9-7" value="" style="endArrow=classic;html=1;rounded=0;exitX=0;exitY=0.5;exitDx=0;exitDy=0;strokeWidth=2;entryX=1;entryY=0.5;entryDx=0;entryDy=0;" parent="1" source="VpHzmzro31c7H7pZUwm9-2" target="VpHzmzro31c7H7pZUwm9-1" edge="1">
          <mxGeometry width="50" height="50" relative="1" as="geometry">
            <mxPoint x="364" y="296" as="sourcePoint" />
            <mxPoint x="416" y="244" as="targetPoint" />
          </mxGeometry>
        </mxCell>
        <mxCell id="VpHzmzro31c7H7pZUwm9-8" value="" style="endArrow=classic;html=1;rounded=0;exitX=0;exitY=0;exitDx=0;exitDy=0;strokeWidth=2;entryX=1;entryY=1;entryDx=0;entryDy=0;" parent="1" source="VpHzmzro31c7H7pZUwm9-2" target="VpHzmzro31c7H7pZUwm9-3" edge="1">
          <mxGeometry width="50" height="50" relative="1" as="geometry">
            <mxPoint x="410" y="230" as="sourcePoint" />
            <mxPoint x="290" y="230" as="targetPoint" />
          </mxGeometry>
        </mxCell>
        <mxCell id="VpHzmzro31c7H7pZUwm9-9" value="" style="endArrow=classic;html=1;rounded=0;exitX=0;exitY=1;exitDx=0;exitDy=0;strokeWidth=2;entryX=1;entryY=0;entryDx=0;entryDy=0;" parent="1" source="VpHzmzro31c7H7pZUwm9-3" target="VpHzmzro31c7H7pZUwm9-1" edge="1">
          <mxGeometry width="50" height="50" relative="1" as="geometry">
            <mxPoint x="416" y="216" as="sourcePoint" />
            <mxPoint x="364" y="165" as="targetPoint" />
          </mxGeometry>
        </mxCell>
        <mxCell id="VpHzmzro31c7H7pZUwm9-10" value="" style="endArrow=classic;html=1;rounded=0;exitX=0.5;exitY=1;exitDx=0;exitDy=0;strokeWidth=2;entryX=0.5;entryY=0;entryDx=0;entryDy=0;" parent="1" source="VpHzmzro31c7H7pZUwm9-1" target="_PjYLiZ7u1xAUvMMXe8_-1" edge="1">
          <mxGeometry width="50" height="50" relative="1" as="geometry">
            <mxPoint x="336" y="165" as="sourcePoint" />
            <mxPoint x="284" y="216" as="targetPoint" />
          </mxGeometry>
        </mxCell>
        <mxCell id="VpHzmzro31c7H7pZUwm9-12" value="&lt;font face=&quot;Helvetica&quot; style=&quot;font-size: 24px;&quot;&gt;10&lt;/font&gt;" style="ellipse;whiteSpace=wrap;html=1;aspect=fixed;strokeWidth=2;" parent="1" vertex="1">
          <mxGeometry x="560" y="360" width="40" height="40" as="geometry" />
        </mxCell>
        <mxCell id="VpHzmzro31c7H7pZUwm9-13" value="&lt;font face=&quot;Helvetica&quot; style=&quot;font-size: 24px;&quot;&gt;11&lt;/font&gt;" style="ellipse;whiteSpace=wrap;html=1;aspect=fixed;strokeWidth=2;" parent="1" vertex="1">
          <mxGeometry x="480" y="440" width="40" height="40" as="geometry" />
        </mxCell>
        <mxCell id="VpHzmzro31c7H7pZUwm9-16" value="" style="endArrow=classic;html=1;rounded=0;exitX=0;exitY=1;exitDx=0;exitDy=0;strokeWidth=2;entryX=1;entryY=0;entryDx=0;entryDy=0;" parent="1" source="VpHzmzro31c7H7pZUwm9-12" target="VpHzmzro31c7H7pZUwm9-13" edge="1">
          <mxGeometry width="50" height="50" relative="1" as="geometry">
            <mxPoint x="256" y="244" as="sourcePoint" />
            <mxPoint x="204" y="296" as="targetPoint" />
          </mxGeometry>
        </mxCell>
        <mxCell id="VpHzmzro31c7H7pZUwm9-18" value="&lt;font face=&quot;Helvetica&quot; style=&quot;font-size: 24px;&quot;&gt;7&lt;/font&gt;" style="ellipse;whiteSpace=wrap;html=1;aspect=fixed;strokeWidth=2;" parent="1" vertex="1">
          <mxGeometry x="480" y="120" width="40" height="40" as="geometry" />
        </mxCell>
        <mxCell id="VpHzmzro31c7H7pZUwm9-19" value="&lt;font face=&quot;Helvetica&quot; style=&quot;font-size: 24px;&quot;&gt;8&lt;/font&gt;" style="ellipse;whiteSpace=wrap;html=1;aspect=fixed;strokeWidth=2;" parent="1" vertex="1">
          <mxGeometry x="640" y="121" width="40" height="40" as="geometry" />
        </mxCell>
        <mxCell id="VpHzmzro31c7H7pZUwm9-20" value="&lt;font face=&quot;Helvetica&quot; style=&quot;font-size: 24px;&quot;&gt;6&lt;/font&gt;" style="ellipse;whiteSpace=wrap;html=1;aspect=fixed;strokeWidth=2;" parent="1" vertex="1">
          <mxGeometry x="560" y="200" width="40" height="40" as="geometry" />
        </mxCell>
        <mxCell id="VpHzmzro31c7H7pZUwm9-21" value="" style="endArrow=classic;html=1;rounded=0;exitX=0;exitY=0.5;exitDx=0;exitDy=0;strokeWidth=2;entryX=1;entryY=0.5;entryDx=0;entryDy=0;" parent="1" source="VpHzmzro31c7H7pZUwm9-20" target="VpHzmzro31c7H7pZUwm9-2" edge="1">
          <mxGeometry width="50" height="50" relative="1" as="geometry">
            <mxPoint x="416" y="216" as="sourcePoint" />
            <mxPoint x="364" y="165" as="targetPoint" />
          </mxGeometry>
        </mxCell>
        <mxCell id="VpHzmzro31c7H7pZUwm9-22" value="" style="endArrow=classic;html=1;rounded=0;exitX=0;exitY=1;exitDx=0;exitDy=0;strokeWidth=2;entryX=1;entryY=0;entryDx=0;entryDy=0;" parent="1" source="VpHzmzro31c7H7pZUwm9-18" target="VpHzmzro31c7H7pZUwm9-2" edge="1">
          <mxGeometry width="50" height="50" relative="1" as="geometry">
            <mxPoint x="570" y="230" as="sourcePoint" />
            <mxPoint x="450" y="230" as="targetPoint" />
          </mxGeometry>
        </mxCell>
        <mxCell id="VpHzmzro31c7H7pZUwm9-23" value="" style="endArrow=classic;html=1;rounded=0;exitX=1;exitY=1;exitDx=0;exitDy=0;strokeWidth=2;" parent="1" source="VpHzmzro31c7H7pZUwm9-18" target="VpHzmzro31c7H7pZUwm9-20" edge="1">
          <mxGeometry width="50" height="50" relative="1" as="geometry">
            <mxPoint x="496" y="164" as="sourcePoint" />
            <mxPoint x="444" y="216" as="targetPoint" />
          </mxGeometry>
        </mxCell>
        <mxCell id="VpHzmzro31c7H7pZUwm9-24" value="" style="endArrow=classic;html=1;rounded=0;exitX=1;exitY=0.5;exitDx=0;exitDy=0;strokeWidth=2;entryX=0;entryY=0.5;entryDx=0;entryDy=0;" parent="1" source="VpHzmzro31c7H7pZUwm9-18" target="VpHzmzro31c7H7pZUwm9-19" edge="1">
          <mxGeometry width="50" height="50" relative="1" as="geometry">
            <mxPoint x="524" y="164" as="sourcePoint" />
            <mxPoint x="630" y="140" as="targetPoint" />
          </mxGeometry>
        </mxCell>
        <mxCell id="VpHzmzro31c7H7pZUwm9-25" value="" style="endArrow=classic;html=1;rounded=0;exitX=0;exitY=1;exitDx=0;exitDy=0;strokeWidth=2;entryX=1;entryY=0;entryDx=0;entryDy=0;" parent="1" source="VpHzmzro31c7H7pZUwm9-19" target="VpHzmzro31c7H7pZUwm9-20" edge="1">
          <mxGeometry width="50" height="50" relative="1" as="geometry">
            <mxPoint x="530" y="150" as="sourcePoint" />
            <mxPoint x="640" y="150" as="targetPoint" />
          </mxGeometry>
        </mxCell>
        <mxCell id="ucs7pr2VS24GjCKCu-9b-1" value="" style="endArrow=classic;html=1;rounded=0;exitX=0;exitY=0.5;exitDx=0;exitDy=0;strokeWidth=2;entryX=1;entryY=0.5;entryDx=0;entryDy=0;" parent="1" source="VpHzmzro31c7H7pZUwm9-12" target="VpHzmzro31c7H7pZUwm9-4" edge="1">
          <mxGeometry width="50" height="50" relative="1" as="geometry">
            <mxPoint x="536" y="344" as="sourcePoint" />
            <mxPoint x="484" y="394" as="targetPoint" />
          </mxGeometry>
        </mxCell>
        <mxCell id="ucs7pr2VS24GjCKCu-9b-2" value="" style="endArrow=classic;html=1;rounded=0;exitX=1;exitY=1;exitDx=0;exitDy=0;strokeWidth=2;" parent="1" source="VpHzmzro31c7H7pZUwm9-4" target="VpHzmzro31c7H7pZUwm9-13" edge="1">
          <mxGeometry width="50" height="50" relative="1" as="geometry">
            <mxPoint x="530" y="330" as="sourcePoint" />
            <mxPoint x="410" y="330" as="targetPoint" />
          </mxGeometry>
        </mxCell>
        <mxCell id="ucs7pr2VS24GjCKCu-9b-4" value="" style="ellipse;whiteSpace=wrap;html=1;fillColor=none;dashed=1;rotation=90;" parent="1" vertex="1">
          <mxGeometry x="421.66" y="289.66" width="154.01" height="239.33" as="geometry" />
        </mxCell>
        <mxCell id="V0VXTDTaGb2kPTYra4Mu-1" value="&lt;span style=&quot;font-size: 24px; font-style: italic;&quot;&gt;B&lt;/span&gt;&lt;sub style=&quot;&quot;&gt;&lt;font style=&quot;font-size: 20px;&quot;&gt;0&lt;/font&gt;&lt;/sub&gt;" style="text;html=1;align=center;verticalAlign=middle;resizable=0;points=[];autosize=1;strokeColor=none;fillColor=none;strokeWidth=1;fontFamily=Times New Roman;fontStyle=0;fontSize=24;" vertex="1" parent="1">
          <mxGeometry x="84.66" y="356.5" width="50" height="50" as="geometry" />
        </mxCell>
        <mxCell id="V0VXTDTaGb2kPTYra4Mu-2" value="&lt;var class=&quot;vector&quot;&gt;&lt;span&gt;&lt;font style=&quot;font-size: 24px;&quot;&gt;⃗&lt;/font&gt;&lt;/span&gt;&lt;/var&gt;" style="text;html=1;align=center;verticalAlign=middle;resizable=0;points=[];autosize=1;strokeColor=none;fillColor=none;fontFamily=Times New Roman;" vertex="1" parent="1">
          <mxGeometry x="99.66" y="353.5" width="20" height="40" as="geometry" />
        </mxCell>
        <mxCell id="V0VXTDTaGb2kPTYra4Mu-3" value="&lt;span style=&quot;font-size: 24px; font-style: italic;&quot;&gt;B&lt;/span&gt;&lt;sub style=&quot;&quot;&gt;&lt;font style=&quot;font-size: 20px;&quot;&gt;1&lt;/font&gt;&lt;/sub&gt;" style="text;html=1;align=center;verticalAlign=middle;resizable=0;points=[];autosize=1;strokeColor=none;fillColor=none;strokeWidth=1;fontFamily=Times New Roman;fontStyle=0;fontSize=24;" vertex="1" parent="1">
          <mxGeometry x="630" y="205.67" width="50" height="50" as="geometry" />
        </mxCell>
        <mxCell id="V0VXTDTaGb2kPTYra4Mu-4" value="&lt;var class=&quot;vector&quot;&gt;&lt;span&gt;&lt;font style=&quot;font-size: 24px;&quot;&gt;⃗&lt;/font&gt;&lt;/span&gt;&lt;/var&gt;" style="text;html=1;align=center;verticalAlign=middle;resizable=0;points=[];autosize=1;strokeColor=none;fillColor=none;fontFamily=Times New Roman;" vertex="1" parent="1">
          <mxGeometry x="645" y="202.67" width="20" height="40" as="geometry" />
        </mxCell>
        <mxCell id="V0VXTDTaGb2kPTYra4Mu-5" value="&lt;span style=&quot;font-size: 24px; font-style: italic;&quot;&gt;B&lt;/span&gt;&lt;sub style=&quot;&quot;&gt;&lt;font style=&quot;font-size: 20px;&quot;&gt;2&lt;/font&gt;&lt;/sub&gt;" style="text;html=1;align=center;verticalAlign=middle;resizable=0;points=[];autosize=1;strokeColor=none;fillColor=none;strokeWidth=1;fontFamily=Times New Roman;fontStyle=0;fontSize=24;" vertex="1" parent="1">
          <mxGeometry x="230" y="100" width="50" height="50" as="geometry" />
        </mxCell>
        <mxCell id="V0VXTDTaGb2kPTYra4Mu-6" value="&lt;var class=&quot;vector&quot;&gt;&lt;span&gt;&lt;font style=&quot;font-size: 24px;&quot;&gt;⃗&lt;/font&gt;&lt;/span&gt;&lt;/var&gt;" style="text;html=1;align=center;verticalAlign=middle;resizable=0;points=[];autosize=1;strokeColor=none;fillColor=none;fontFamily=Times New Roman;" vertex="1" parent="1">
          <mxGeometry x="245" y="97" width="20" height="40" as="geometry" />
        </mxCell>
        <mxCell id="V0VXTDTaGb2kPTYra4Mu-7" value="&lt;span style=&quot;font-size: 24px; font-style: italic;&quot;&gt;B&lt;/span&gt;&lt;sub style=&quot;&quot;&gt;&lt;font style=&quot;font-size: 20px;&quot;&gt;3&lt;/font&gt;&lt;/sub&gt;" style="text;html=1;align=center;verticalAlign=middle;resizable=0;points=[];autosize=1;strokeColor=none;fillColor=none;strokeWidth=1;fontFamily=Times New Roman;fontStyle=0;fontSize=24;" vertex="1" parent="1">
          <mxGeometry x="612.93" y="409.5" width="50" height="50" as="geometry" />
        </mxCell>
        <mxCell id="V0VXTDTaGb2kPTYra4Mu-8" value="&lt;var class=&quot;vector&quot;&gt;&lt;span&gt;&lt;font style=&quot;font-size: 24px;&quot;&gt;⃗&lt;/font&gt;&lt;/span&gt;&lt;/var&gt;" style="text;html=1;align=center;verticalAlign=middle;resizable=0;points=[];autosize=1;strokeColor=none;fillColor=none;fontFamily=Times New Roman;" vertex="1" parent="1">
          <mxGeometry x="627.93" y="406.5" width="20" height="40" as="geometry" />
        </mxCell>
      </root>
    </mxGraphModel>
  </diagram>
</mxfile>
